{
	"asset":{
		"generator":"Khronos glTF Blender I/O v5.2.39",
		"version":"2.0"
	},
	"scene":0,
	"scenes":[
		{
			"name":"Scene",
			"nodes":[
				0,
				1,
				2
			]
		}
	],
	"nodes":[
		{
			"camera":0,
			"name":"Banner Camera",
			"rotation":[
				-0.7071068286895752,
				0,
				0,
				0.7071068286895752
			],
			"translation":[
				0,
				44.7859992980957,
				-1
			]
		},
		{
			"mesh":0,
			"name":"model_0",
			"rotation":[
				0.7071068286895752,
				0,
				0,
				0.7071068286895752
			],
			"scale":[
				0.1599999964237213,
				0.1599999964237213,
				0.1599999964237213
			]
		},
		{
			"mesh":1,
			"name":"model_3",
			"rotation":[
				0.7071068286895752,
				0,
				0,
				0.7071068286895752
			],
			"scale":[
				0.1599999964237213,
				0.1599999964237213,
				0.1599999964237213
			]
		}
	],
	"cameras":[
		{
			"name":"Banner Camera",
			"perspective":{
				"aspectRatio":1.7777777777777777,
				"yfov":0.39959648408210363,
				"zfar":1000,
				"znear":0.10000000149011612
			},
			"type":"perspective"
		}
	],
	"materials":[
		{
			"doubleSided":true,
			"name":"Material.002",
			"normalTexture":{
				"index":0
			},
			"pbrMetallicRoughness":{
				"baseColorTexture":{
					"index":1
				},
				"metallicFactor":0,
				"roughnessFactor":0.6499999761581421
			}
		},
		{
			"doubleSided":true,
			"name":"Material.003",
			"pbrMetallicRoughness":{
				"baseColorFactor":[
					0.0045769354328513145,
					0.0045769354328513145,
					0.0045769354328513145,
					1
				],
				"metallicFactor":0,
				"roughnessFactor":0.6499999761581421
			}
		}
	],
	"meshes":[
		{
			"name":"model_0",
			"primitives":[
				{
					"attributes":{
						"POSITION":0,
						"NORMAL":1,
						"TEXCOORD_0":2
					},
					"indices":3,
					"material":0
				}
			]
		},
		{
			"name":"model_3",
			"primitives":[
				{
					"attributes":{
						"POSITION":4,
						"NORMAL":5
					},
					"indices":6,
					"material":1
				}
			]
		}
	],
	"textures":[
		{
			"sampler":0,
			"source":0
		},
		{
			"sampler":0,
			"source":1
		}
	],
	"images":[
		{
			"mimeType":"image/png",
			"name":"logo_normal_128",
			"uri":"logo_normal_128.png"
		},
		{
			"mimeType":"image/png",
			"name":"logo_base_256",
			"uri":"logo_base_256.png"
		}
	],
	"accessors":[
		{
			"bufferView":0,
			"componentType":5126,
			"count":4953,
			"max":[
				46.9617919921875,
				3.2121212482452393,
				42.91740036010742
			],
			"min":[
				-48.49700164794922,
				-9.271958351135254,
				-42.57664489746094
			],
			"type":"VEC3"
		},
		{
			"bufferView":1,
			"componentType":5126,
			"count":4953,
			"type":"VEC3"
		},
		{
			"bufferView":2,
			"componentType":5126,
			"count":4953,
			"type":"VEC2"
		},
		{
			"bufferView":3,
			"componentType":5123,
			"count":5061,
			"type":"SCALAR"
		},
		{
			"bufferView":4,
			"componentType":5126,
			"count":1887,
			"max":[
				44.82131576538086,
				-0.31492283940315247,
				11.768799781799316
			],
			"min":[
				-9.206199645996094,
				-0.553288996219635,
				-31.033748626708984
			],
			"type":"VEC3"
		},
		{
			"bufferView":5,
			"componentType":5126,
			"count":1887,
			"type":"VEC3"
		},
		{
			"bufferView":6,
			"componentType":5123,
			"count":2811,
			"type":"SCALAR"
		}
	],
	"bufferViews":[
		{
			"buffer":0,
			"byteLength":59436,
			"byteOffset":0,
			"target":34962
		},
		{
			"buffer":0,
			"byteLength":59436,
			"byteOffset":59436,
			"target":34962
		},
		{
			"buffer":0,
			"byteLength":39624,
			"byteOffset":118872,
			"target":34962
		},
		{
			"buffer":0,
			"byteLength":10122,
			"byteOffset":158496,
			"target":34963
		},
		{
			"buffer":0,
			"byteLength":22644,
			"byteOffset":168620,
			"target":34962
		},
		{
			"buffer":0,
			"byteLength":22644,
			"byteOffset":191264,
			"target":34962
		},
		{
			"buffer":0,
			"byteLength":5622,
			"byteOffset":213908,
			"target":34963
		}
	],
	"samplers":[
		{
			"magFilter":9729,
			"minFilter":9987,
			"wrapS":33071,
			"wrapT":33071
		}
	],
	"buffers":[
		{
			"byteLength":219532,
			"uri":"lttp_logo_banner.bin"
		}
	]
}
